<?xml version="1.0" encoding="utf-8"?>

<!DOCTYPE svg PUBLIC "-//W3C//DTD SVG 1.1//EN" "http://www.w3.org/Graphics/SVG/1.1/DTD/svg11.dtd">
<svg version="1.1" id="Layer_1" xmlns="http://www.w3.org/2000/svg" xmlns:xlink="http://www.w3.org/1999/xlink" x="0px" y="0px"
	 viewBox="0 0 1652.428 1639.088" enable-background="new 0 0 1652.428 1639.088" xml:space="preserve">
<symbol  id="Thumbs_Up_Silhouette_1_" viewBox="-763.996 -800 1527.992 1600">
	<path fill="#39B54A" d="M198.008,794.603c97.671-25.093,142.557-112.74,144.818-208.355
		c2.401-101.523-42.423-181.57-84.997-270.352c-18.395-38.362-38.462-82.635-36.487-126.19c0.563-12.417,0.802-27.506,15.945-27.742
		c21.368-0.333,42.893,1.706,64.257,2.154c105.462,2.216,216.753,7.466,321.289-9.045c46.278-7.309,75.068-33.533,101.687-70.609
		c25.452-35.451,55.407-84.154,27.813-125.704c-11.747-17.689-27.834-33.408-36.878-52.78c-9.931-21.272,4.05-42.8,14.761-60.731
		c10.656-17.838,23.232-35.273,30.82-54.741c10.099-25.914-7.584-45.847-23.702-64.383c-13.264-15.254-31.3-31.274-38.413-50.683
		c-7.527-20.539,5.019-45.109,12.722-63.716c8.271-19.98,20.123-42.489,18.229-64.759c-2.176-25.583-21.327-46.373-38.644-63.594
		c-33.087-32.903-52.634-50.38-52.227-98.952c0.198-23.661,2.524-45.313-10.572-66.29c-13.295-21.296-32.699-39.974-51.703-56.156
		c-78.329-66.697-184.588-62.615-282.268-61.519c-106.755,1.197-212.765,9.314-319.212,15.854
		c-44.791,2.752-89.887,14.981-133.943,23.289c-52.046,9.815-104.172,19.231-156.268,28.778
		c-18.122,3.321-44.264,3.443-60.731,11.775c-9.132,4.621-2.846,54.191-2.842,63.184c0.024,57.754,0.04,115.507,0.051,173.261
		c0.021,111.065,0.022,222.129,0.022,333.194c0,25.056,0,50.112,0,75.169c0,18.793,20.188,10.899,34.706,11.647
		c45.842,2.36,82.636,49.117,106.769,83.479c59.504,84.724,96.672,180.461,137.721,274.72
		c17.589,40.387,51.412,69.189,85.082,96.022c39.341,31.353,69.293,65.938,88.896,112.718
		c26.823,64.009,35.742,132.445,43.628,200.873c2.626,22.785-4.143,73.679,17.199,88.332
		C153.539,805.111,178.556,798.823,198.008,794.603C204.159,793.023,168.071,801.097,198.008,794.603z M-443.451-695.86v596
		c0,40.317-32.683,73-73,73h-174.545c-40.317,0-73-32.683-73-73v-596c0-40.317,32.683-73,73-73h174.545
		C-476.134-768.86-443.451-736.176-443.451-695.86z"/>
</symbol>
<g id="Thumbs_Up_Silhouette">
</g>
<g>
	
		<use xlink:href="#Thumbs_Up_Silhouette_1_"  width="1527.992" height="1600" x="-763.996" y="-800" transform="matrix(0.026 0 0 -0.026 516.4526 1230.1278)" overflow="visible"/>
	
		<use xlink:href="#Thumbs_Up_Silhouette_1_"  width="1527.992" height="1600" x="-763.996" y="-800" transform="matrix(0.026 0 0 -0.026 815.6752 1250.4221)" overflow="visible"/>
	
		<use xlink:href="#Thumbs_Up_Silhouette_1_"  width="1527.992" height="1600" x="-763.996" y="-800" transform="matrix(0.026 0 0 -0.026 957.9141 896.6516)" overflow="visible"/>
	
		<use xlink:href="#Thumbs_Up_Silhouette_1_"  width="1527.992" height="1600" x="-763.996" y="-800" transform="matrix(0.026 0 0 -0.026 501.3026 1598.7494)" overflow="visible"/>
	
		<use xlink:href="#Thumbs_Up_Silhouette_1_"  width="1527.992" height="1600" x="-763.996" y="-800" transform="matrix(0.026 0 0 -0.026 448.7168 1018.5889)" overflow="visible"/>
	
		<use xlink:href="#Thumbs_Up_Silhouette_1_"  width="1527.992" height="1600" x="-763.996" y="-800" transform="matrix(0.026 0 0 -0.026 614.1603 1089.6371)" overflow="visible"/>
	
		<use xlink:href="#Thumbs_Up_Silhouette_1_"  width="1527.992" height="1600" x="-763.996" y="-800" transform="matrix(0.026 0 0 -0.026 1395.401 707.3713)" overflow="visible"/>
	
		<use xlink:href="#Thumbs_Up_Silhouette_1_"  width="1527.992" height="1600" x="-763.996" y="-800" transform="matrix(0.026 0 0 -0.026 943.9468 1208.4865)" overflow="visible"/>
	
		<use xlink:href="#Thumbs_Up_Silhouette_1_"  width="1527.992" height="1600" x="-763.996" y="-800" transform="matrix(0.026 0 0 -0.026 699.7625 1389.8354)" overflow="visible"/>
	
		<use xlink:href="#Thumbs_Up_Silhouette_1_"  width="1527.992" height="1600" x="-763.996" y="-800" transform="matrix(0.026 0 0 -0.026 1073.7949 1102.3113)" overflow="visible"/>
	
		<use xlink:href="#Thumbs_Up_Silhouette_1_"  width="1527.992" height="1600" x="-763.996" y="-800" transform="matrix(0.026 0 0 -0.026 1269.9592 755.1483)" overflow="visible"/>
	
		<use xlink:href="#Thumbs_Up_Silhouette_1_"  width="1527.992" height="1600" x="-763.996" y="-800" transform="matrix(0.026 0 0 -0.026 914.4406 730.2806)" overflow="visible"/>
	
		<use xlink:href="#Thumbs_Up_Silhouette_1_"  width="1527.992" height="1600" x="-763.996" y="-800" transform="matrix(0.026 0 0 -0.026 1383.1613 763.1312)" overflow="visible"/>
	
		<use xlink:href="#Thumbs_Up_Silhouette_1_"  width="1527.992" height="1600" x="-763.996" y="-800" transform="matrix(0.026 0 0 -0.026 1478.9594 829.0347)" overflow="visible"/>
	
		<use xlink:href="#Thumbs_Up_Silhouette_1_"  width="1527.992" height="1600" x="-763.996" y="-800" transform="matrix(0.026 0 0 -0.026 184.3709 821.0521)" overflow="visible"/>
	
		<use xlink:href="#Thumbs_Up_Silhouette_1_"  width="1527.992" height="1600" x="-763.996" y="-800" transform="matrix(0.026 0 0 -0.026 718.0759 412.1808)" overflow="visible"/>
	
		<use xlink:href="#Thumbs_Up_Silhouette_1_"  width="1527.992" height="1600" x="-763.996" y="-800" transform="matrix(0.026 0 0 -0.026 672.2136 560.0894)" overflow="visible"/>
	
		<use xlink:href="#Thumbs_Up_Silhouette_1_"  width="1527.992" height="1600" x="-763.996" y="-800" transform="matrix(0.026 0 0 -0.026 1339.3066 716.9296)" overflow="visible"/>
	
		<use xlink:href="#Thumbs_Up_Silhouette_1_"  width="1527.992" height="1600" x="-763.996" y="-800" transform="matrix(0.026 0 0 -0.026 549.8235 947.7079)" overflow="visible"/>
	
		<use xlink:href="#Thumbs_Up_Silhouette_1_"  width="1527.992" height="1600" x="-763.996" y="-800" transform="matrix(0.026 0 0 -0.026 1242.2401 1083.5098)" overflow="visible"/>
	
		<use xlink:href="#Thumbs_Up_Silhouette_1_"  width="1527.992" height="1600" x="-763.996" y="-800" transform="matrix(0.026 0 0 -0.026 942.9334 656.7974)" overflow="visible"/>
	
		<use xlink:href="#Thumbs_Up_Silhouette_1_"  width="1527.992" height="1600" x="-763.996" y="-800" transform="matrix(0.026 0 0 -0.026 989.8925 1300.0029)" overflow="visible"/>
	
		<use xlink:href="#Thumbs_Up_Silhouette_1_"  width="1527.992" height="1600" x="-763.996" y="-800" transform="matrix(0.026 0 0 -0.026 1147.9305 1266.5953)" overflow="visible"/>
	
		<use xlink:href="#Thumbs_Up_Silhouette_1_"  width="1527.992" height="1600" x="-763.996" y="-800" transform="matrix(0.026 0 0 -0.026 619.4609 1196.7856)" overflow="visible"/>
	
		<use xlink:href="#Thumbs_Up_Silhouette_1_"  width="1527.992" height="1600" x="-763.996" y="-800" transform="matrix(0.026 0 0 -0.026 1039.0472 953.0587)" overflow="visible"/>
	
		<use xlink:href="#Thumbs_Up_Silhouette_1_"  width="1527.992" height="1600" x="-763.996" y="-800" transform="matrix(0.026 0 0 -0.026 804.9026 293.2409)" overflow="visible"/>
	
		<use xlink:href="#Thumbs_Up_Silhouette_1_"  width="1527.992" height="1600" x="-763.996" y="-800" transform="matrix(0.026 0 0 -0.026 1371.1862 977.7303)" overflow="visible"/>
	
		<use xlink:href="#Thumbs_Up_Silhouette_1_"  width="1527.992" height="1600" x="-763.996" y="-800" transform="matrix(0.026 0 0 -0.026 777.3897 950.203)" overflow="visible"/>
	
		<use xlink:href="#Thumbs_Up_Silhouette_1_"  width="1527.992" height="1600" x="-763.996" y="-800" transform="matrix(0.026 0 0 -0.026 946.6787 380.9828)" overflow="visible"/>
	
		<use xlink:href="#Thumbs_Up_Silhouette_1_"  width="1527.992" height="1600" x="-763.996" y="-800" transform="matrix(0.026 0 0 -0.026 822.5767 1064.272)" overflow="visible"/>
	
		<use xlink:href="#Thumbs_Up_Silhouette_1_"  width="1527.992" height="1600" x="-763.996" y="-800" transform="matrix(0.026 0 0 -0.026 930.1863 435.0481)" overflow="visible"/>
	
		<use xlink:href="#Thumbs_Up_Silhouette_1_"  width="1527.992" height="1600" x="-763.996" y="-800" transform="matrix(0.026 0 0 -0.026 897.775 340.7244)" overflow="visible"/>
	
		<use xlink:href="#Thumbs_Up_Silhouette_1_"  width="1527.992" height="1600" x="-763.996" y="-800" transform="matrix(0.026 0 0 -0.026 647.4444 1523.0071)" overflow="visible"/>
	
		<use xlink:href="#Thumbs_Up_Silhouette_1_"  width="1527.992" height="1600" x="-763.996" y="-800" transform="matrix(0.026 0 0 -0.026 686.6197 472.6379)" overflow="visible"/>
	
		<use xlink:href="#Thumbs_Up_Silhouette_1_"  width="1527.992" height="1600" x="-763.996" y="-800" transform="matrix(0.026 0 0 -0.026 392.1506 939.342)" overflow="visible"/>
	
		<use xlink:href="#Thumbs_Up_Silhouette_1_"  width="1527.992" height="1600" x="-763.996" y="-800" transform="matrix(0.026 0 0 -0.026 1376.1919 878.443)" overflow="visible"/>
	
		<use xlink:href="#Thumbs_Up_Silhouette_1_"  width="1527.992" height="1600" x="-763.996" y="-800" transform="matrix(0.026 0 0 -0.026 868.6974 767.0242)" overflow="visible"/>
	
		<use xlink:href="#Thumbs_Up_Silhouette_1_"  width="1527.992" height="1600" x="-763.996" y="-800" transform="matrix(0.026 0 0 -0.026 997.527 1192.1428)" overflow="visible"/>
	
		<use xlink:href="#Thumbs_Up_Silhouette_1_"  width="1527.992" height="1600" x="-763.996" y="-800" transform="matrix(0.026 0 0 -0.026 836.1255 946.5948)" overflow="visible"/>
	
		<use xlink:href="#Thumbs_Up_Silhouette_1_"  width="1527.992" height="1600" x="-763.996" y="-800" transform="matrix(0.026 0 0 -0.026 993.7208 1491.1296)" overflow="visible"/>
	
		<use xlink:href="#Thumbs_Up_Silhouette_1_"  width="1527.992" height="1600" x="-763.996" y="-800" transform="matrix(0.026 0 0 -0.026 1464.3749 1312.2438)" overflow="visible"/>
	
		<use xlink:href="#Thumbs_Up_Silhouette_1_"  width="1527.992" height="1600" x="-763.996" y="-800" transform="matrix(0.026 0 0 -0.026 848.7598 715.5765)" overflow="visible"/>
	
		<use xlink:href="#Thumbs_Up_Silhouette_1_"  width="1527.992" height="1600" x="-763.996" y="-800" transform="matrix(0.026 0 0 -0.026 721.6969 1219.3522)" overflow="visible"/>
	
		<use xlink:href="#Thumbs_Up_Silhouette_1_"  width="1527.992" height="1600" x="-763.996" y="-800" transform="matrix(0.026 0 0 -0.026 935.6683 1324.7874)" overflow="visible"/>
	
		<use xlink:href="#Thumbs_Up_Silhouette_1_"  width="1527.992" height="1600" x="-763.996" y="-800" transform="matrix(0.026 0 0 -0.026 865.9786 455.0212)" overflow="visible"/>
	
		<use xlink:href="#Thumbs_Up_Silhouette_1_"  width="1527.992" height="1600" x="-763.996" y="-800" transform="matrix(0.026 0 0 -0.026 865.7557 1151.8937)" overflow="visible"/>
	
		<use xlink:href="#Thumbs_Up_Silhouette_1_"  width="1527.992" height="1600" x="-763.996" y="-800" transform="matrix(0.026 0 0 -0.026 1149.6355 834.735)" overflow="visible"/>
	
		<use xlink:href="#Thumbs_Up_Silhouette_1_"  width="1527.992" height="1600" x="-763.996" y="-800" transform="matrix(0.026 0 0 -0.026 967.4483 1153.3014)" overflow="visible"/>
	
		<use xlink:href="#Thumbs_Up_Silhouette_1_"  width="1527.992" height="1600" x="-763.996" y="-800" transform="matrix(0.026 0 0 -0.026 930.859 848.202)" overflow="visible"/>
	
		<use xlink:href="#Thumbs_Up_Silhouette_1_"  width="1527.992" height="1600" x="-763.996" y="-800" transform="matrix(0.026 0 0 -0.026 877.5888 1322.704)" overflow="visible"/>
	
		<use xlink:href="#Thumbs_Up_Silhouette_1_"  width="1527.992" height="1600" x="-763.996" y="-800" transform="matrix(0.026 0 0 -0.026 736.6573 843.2803)" overflow="visible"/>
	
		<use xlink:href="#Thumbs_Up_Silhouette_1_"  width="1527.992" height="1600" x="-763.996" y="-800" transform="matrix(0.026 0 0 -0.026 1176.2151 873.5063)" overflow="visible"/>
	
		<use xlink:href="#Thumbs_Up_Silhouette_1_"  width="1527.992" height="1600" x="-763.996" y="-800" transform="matrix(0.026 0 0 -0.026 898.8763 1194.564)" overflow="visible"/>
	
		<use xlink:href="#Thumbs_Up_Silhouette_1_"  width="1527.992" height="1600" x="-763.996" y="-800" transform="matrix(0.026 0 0 -0.026 891.2012 1372.4547)" overflow="visible"/>
	
		<use xlink:href="#Thumbs_Up_Silhouette_1_"  width="1527.992" height="1600" x="-763.996" y="-800" transform="matrix(0.026 0 0 -0.026 759.5957 1255.3756)" overflow="visible"/>
	
		<use xlink:href="#Thumbs_Up_Silhouette_1_"  width="1527.992" height="1600" x="-763.996" y="-800" transform="matrix(0.026 0 0 -0.026 1295.5149 1248.2633)" overflow="visible"/>
	
		<use xlink:href="#Thumbs_Up_Silhouette_1_"  width="1527.992" height="1600" x="-763.996" y="-800" transform="matrix(0.026 0 0 -0.026 1016.6733 1067.2612)" overflow="visible"/>
	
		<use xlink:href="#Thumbs_Up_Silhouette_1_"  width="1527.992" height="1600" x="-763.996" y="-800" transform="matrix(0.026 0 0 -0.026 260.4421 718.3524)" overflow="visible"/>
	
		<use xlink:href="#Thumbs_Up_Silhouette_1_"  width="1527.992" height="1600" x="-763.996" y="-800" transform="matrix(0.026 0 0 -0.026 1096.0029 1508.3176)" overflow="visible"/>
	
		<use xlink:href="#Thumbs_Up_Silhouette_1_"  width="1527.992" height="1600" x="-763.996" y="-800" transform="matrix(0.026 0 0 -0.026 269.021 1271.4186)" overflow="visible"/>
	
		<use xlink:href="#Thumbs_Up_Silhouette_1_"  width="1527.992" height="1600" x="-763.996" y="-800" transform="matrix(0.026 0 0 -0.026 655.7177 1434.6024)" overflow="visible"/>
	
		<use xlink:href="#Thumbs_Up_Silhouette_1_"  width="1527.992" height="1600" x="-763.996" y="-800" transform="matrix(0.026 0 0 -0.026 563.6147 1120.1029)" overflow="visible"/>
	
		<use xlink:href="#Thumbs_Up_Silhouette_1_"  width="1527.992" height="1600" x="-763.996" y="-800" transform="matrix(0.026 0 0 -0.026 327.3575 803.5869)" overflow="visible"/>
	
		<use xlink:href="#Thumbs_Up_Silhouette_1_"  width="1527.992" height="1600" x="-763.996" y="-800" transform="matrix(0.026 0 0 -0.026 766.6184 535.0153)" overflow="visible"/>
	
		<use xlink:href="#Thumbs_Up_Silhouette_1_"  width="1527.992" height="1600" x="-763.996" y="-800" transform="matrix(0.026 0 0 -0.026 452.2032 911.4188)" overflow="visible"/>
	
		<use xlink:href="#Thumbs_Up_Silhouette_1_"  width="1527.992" height="1600" x="-763.996" y="-800" transform="matrix(0.026 0 0 -0.026 760.1984 1395.8359)" overflow="visible"/>
	
		<use xlink:href="#Thumbs_Up_Silhouette_1_"  width="1527.992" height="1600" x="-763.996" y="-800" transform="matrix(0.026 0 0 -0.026 910.0275 288.358)" overflow="visible"/>
	
		<use xlink:href="#Thumbs_Up_Silhouette_1_"  width="1527.992" height="1600" x="-763.996" y="-800" transform="matrix(0.026 0 0 -0.026 600.1788 1446.8063)" overflow="visible"/>
	
		<use xlink:href="#Thumbs_Up_Silhouette_1_"  width="1527.992" height="1600" x="-763.996" y="-800" transform="matrix(0.026 0 0 -0.026 1262.4751 869.6961)" overflow="visible"/>
	
		<use xlink:href="#Thumbs_Up_Silhouette_1_"  width="1527.992" height="1600" x="-763.996" y="-800" transform="matrix(0.026 0 0 -0.026 791.4744 197.6185)" overflow="visible"/>
	
		<use xlink:href="#Thumbs_Up_Silhouette_1_"  width="1527.992" height="1600" x="-763.996" y="-800" transform="matrix(0.026 0 0 -0.026 596.2413 1550.5581)" overflow="visible"/>
	
		<use xlink:href="#Thumbs_Up_Silhouette_1_"  width="1527.992" height="1600" x="-763.996" y="-800" transform="matrix(0.026 0 0 -0.026 1153.6832 1593.7878)" overflow="visible"/>
	
		<use xlink:href="#Thumbs_Up_Silhouette_1_"  width="1527.992" height="1600" x="-763.996" y="-800" transform="matrix(0.026 0 0 -0.026 1261.9841 1292.9244)" overflow="visible"/>
	
		<use xlink:href="#Thumbs_Up_Silhouette_1_"  width="1527.992" height="1600" x="-763.996" y="-800" transform="matrix(0.026 0 0 -0.026 452.7506 1130.1409)" overflow="visible"/>
	
		<use xlink:href="#Thumbs_Up_Silhouette_1_"  width="1527.992" height="1600" x="-763.996" y="-800" transform="matrix(0.026 0 0 -0.026 504.1197 1278.058)" overflow="visible"/>
	
		<use xlink:href="#Thumbs_Up_Silhouette_1_"  width="1527.992" height="1600" x="-763.996" y="-800" transform="matrix(0.026 0 0 -0.026 714.5891 370.5333)" overflow="visible"/>
	
		<use xlink:href="#Thumbs_Up_Silhouette_1_"  width="1527.992" height="1600" x="-763.996" y="-800" transform="matrix(0.026 0 0 -0.026 592.2405 1359.2166)" overflow="visible"/>
	
		<use xlink:href="#Thumbs_Up_Silhouette_1_"  width="1527.992" height="1600" x="-763.996" y="-800" transform="matrix(0.026 0 0 -0.026 916.4881 1136.3698)" overflow="visible"/>
	
		<use xlink:href="#Thumbs_Up_Silhouette_1_"  width="1527.992" height="1600" x="-763.996" y="-800" transform="matrix(0.026 0 0 -0.026 955.2554 1452.3805)" overflow="visible"/>
	
		<use xlink:href="#Thumbs_Up_Silhouette_1_"  width="1527.992" height="1600" x="-763.996" y="-800" transform="matrix(0.026 0 0 -0.026 487.2702 950.4749)" overflow="visible"/>
	
		<use xlink:href="#Thumbs_Up_Silhouette_1_"  width="1527.992" height="1600" x="-763.996" y="-800" transform="matrix(0.026 0 0 -0.026 515.8324 1326.406)" overflow="visible"/>
	
		<use xlink:href="#Thumbs_Up_Silhouette_1_"  width="1527.992" height="1600" x="-763.996" y="-800" transform="matrix(0.026 0 0 -0.026 1611.1742 600.1634)" overflow="visible"/>
	
		<use xlink:href="#Thumbs_Up_Silhouette_1_"  width="1527.992" height="1600" x="-763.996" y="-800" transform="matrix(0.026 0 0 -0.026 1411.5093 1284.436)" overflow="visible"/>
	
		<use xlink:href="#Thumbs_Up_Silhouette_1_"  width="1527.992" height="1600" x="-763.996" y="-800" transform="matrix(0.026 0 0 -0.026 630.2502 1311.7665)" overflow="visible"/>
	
		<use xlink:href="#Thumbs_Up_Silhouette_1_"  width="1527.992" height="1600" x="-763.996" y="-800" transform="matrix(0.026 0 0 -0.026 690.5366 1000.7341)" overflow="visible"/>
	
		<use xlink:href="#Thumbs_Up_Silhouette_1_"  width="1527.992" height="1600" x="-763.996" y="-800" transform="matrix(0.026 0 0 -0.026 396.8283 1245.2504)" overflow="visible"/>
	
		<use xlink:href="#Thumbs_Up_Silhouette_1_"  width="1527.992" height="1600" x="-763.996" y="-800" transform="matrix(0.026 0 0 -0.026 893.8488 396.7766)" overflow="visible"/>
	
		<use xlink:href="#Thumbs_Up_Silhouette_1_"  width="1527.992" height="1600" x="-763.996" y="-800" transform="matrix(0.026 0 0 -0.026 336.3173 1032.4667)" overflow="visible"/>
	
		<use xlink:href="#Thumbs_Up_Silhouette_1_"  width="1527.992" height="1600" x="-763.996" y="-800" transform="matrix(0.026 0 0 -0.026 868.1311 1036.9144)" overflow="visible"/>
	
		<use xlink:href="#Thumbs_Up_Silhouette_1_"  width="1527.992" height="1600" x="-763.996" y="-800" transform="matrix(0.026 0 0 -0.026 676.1002 619.7259)" overflow="visible"/>
	
		<use xlink:href="#Thumbs_Up_Silhouette_1_"  width="1527.992" height="1600" x="-763.996" y="-800" transform="matrix(0.026 0 0 -0.026 510.4628 896.8723)" overflow="visible"/>
	
		<use xlink:href="#Thumbs_Up_Silhouette_1_"  width="1527.992" height="1600" x="-763.996" y="-800" transform="matrix(0.026 0 0 -0.026 345.7659 1302.3521)" overflow="visible"/>
	
		<use xlink:href="#Thumbs_Up_Silhouette_1_"  width="1527.992" height="1600" x="-763.996" y="-800" transform="matrix(0.026 0 0 -0.026 916.4688 1416.7279)" overflow="visible"/>
	
		<use xlink:href="#Thumbs_Up_Silhouette_1_"  width="1527.992" height="1600" x="-763.996" y="-800" transform="matrix(0.026 0 0 -0.026 1320.4597 864.3821)" overflow="visible"/>
	
		<use xlink:href="#Thumbs_Up_Silhouette_1_"  width="1527.992" height="1600" x="-763.996" y="-800" transform="matrix(0.026 0 0 -0.026 1012.5049 1119.1285)" overflow="visible"/>
	
		<use xlink:href="#Thumbs_Up_Silhouette_1_"  width="1527.992" height="1600" x="-763.996" y="-800" transform="matrix(0.026 0 0 -0.026 601.9702 1039.8269)" overflow="visible"/>
	
		<use xlink:href="#Thumbs_Up_Silhouette_1_"  width="1527.992" height="1600" x="-763.996" y="-800" transform="matrix(0.026 0 0 -0.026 697.1089 896.201)" overflow="visible"/>
	
		<use xlink:href="#Thumbs_Up_Silhouette_1_"  width="1527.992" height="1600" x="-763.996" y="-800" transform="matrix(0.026 0 0 -0.026 625.095 1142.8514)" overflow="visible"/>
	
		<use xlink:href="#Thumbs_Up_Silhouette_1_"  width="1527.992" height="1600" x="-763.996" y="-800" transform="matrix(0.026 0 0 -0.026 1507.1184 767.4869)" overflow="visible"/>
	
		<use xlink:href="#Thumbs_Up_Silhouette_1_"  width="1527.992" height="1600" x="-763.996" y="-800" transform="matrix(0.026 0 0 -0.026 949.6104 1051.0614)" overflow="visible"/>
	
		<use xlink:href="#Thumbs_Up_Silhouette_1_"  width="1527.992" height="1600" x="-763.996" y="-800" transform="matrix(0.026 0 0 -0.026 919.512 1006.5966)" overflow="visible"/>
	
		<use xlink:href="#Thumbs_Up_Silhouette_1_"  width="1527.992" height="1600" x="-763.996" y="-800" transform="matrix(0.026 0 0 -0.026 746.3396 1164.5885)" overflow="visible"/>
	
		<use xlink:href="#Thumbs_Up_Silhouette_1_"  width="1527.992" height="1600" x="-763.996" y="-800" transform="matrix(0.026 0 0 -0.026 1312.4304 1307.4401)" overflow="visible"/>
	
		<use xlink:href="#Thumbs_Up_Silhouette_1_"  width="1527.992" height="1600" x="-763.996" y="-800" transform="matrix(0.026 0 0 -0.026 1280.3369 1051.8131)" overflow="visible"/>
	
		<use xlink:href="#Thumbs_Up_Silhouette_1_"  width="1527.992" height="1600" x="-763.996" y="-800" transform="matrix(0.026 0 0 -0.026 1496.3624 660.6877)" overflow="visible"/>
	
		<use xlink:href="#Thumbs_Up_Silhouette_1_"  width="1527.992" height="1600" x="-763.996" y="-800" transform="matrix(0.026 0 0 -0.026 152.4976 771.9587)" overflow="visible"/>
	
		<use xlink:href="#Thumbs_Up_Silhouette_1_"  width="1527.992" height="1600" x="-763.996" y="-800" transform="matrix(0.026 0 0 -0.026 1220.4108 838.0181)" overflow="visible"/>
	
		<use xlink:href="#Thumbs_Up_Silhouette_1_"  width="1527.992" height="1600" x="-763.996" y="-800" transform="matrix(0.026 0 0 -0.026 1148.2629 1163.6853)" overflow="visible"/>
	
		<use xlink:href="#Thumbs_Up_Silhouette_1_"  width="1527.992" height="1600" x="-763.996" y="-800" transform="matrix(0.026 0 0 -0.026 884.9481 887.1559)" overflow="visible"/>
	
		<use xlink:href="#Thumbs_Up_Silhouette_1_"  width="1527.992" height="1600" x="-763.996" y="-800" transform="matrix(0.026 0 0 -0.026 819.2607 899.3674)" overflow="visible"/>
	
		<use xlink:href="#Thumbs_Up_Silhouette_1_"  width="1527.992" height="1600" x="-763.996" y="-800" transform="matrix(0.026 0 0 -0.026 947.9635 950.8196)" overflow="visible"/>
	
		<use xlink:href="#Thumbs_Up_Silhouette_1_"  width="1527.992" height="1600" x="-763.996" y="-800" transform="matrix(0.026 0 0 -0.026 208.0486 1306.4398)" overflow="visible"/>
	
		<use xlink:href="#Thumbs_Up_Silhouette_1_"  width="1527.992" height="1600" x="-763.996" y="-800" transform="matrix(0.026 0 0 -0.026 799.1097 1347.8534)" overflow="visible"/>
	
		<use xlink:href="#Thumbs_Up_Silhouette_1_"  width="1527.992" height="1600" x="-763.996" y="-800" transform="matrix(0.026 0 0 -0.026 1227.8645 1387.6422)" overflow="visible"/>
	
		<use xlink:href="#Thumbs_Up_Silhouette_1_"  width="1527.992" height="1600" x="-763.996" y="-800" transform="matrix(0.026 0 0 -0.026 667.4022 1214.9099)" overflow="visible"/>
	
		<use xlink:href="#Thumbs_Up_Silhouette_1_"  width="1527.992" height="1600" x="-763.996" y="-800" transform="matrix(0.026 0 0 -0.026 1238.3937 957.984)" overflow="visible"/>
	
		<use xlink:href="#Thumbs_Up_Silhouette_1_"  width="1527.992" height="1600" x="-763.996" y="-800" transform="matrix(0.026 0 0 -0.026 960.9286 601.4821)" overflow="visible"/>
	
		<use xlink:href="#Thumbs_Up_Silhouette_1_"  width="1527.992" height="1600" x="-763.996" y="-800" transform="matrix(0.026 0 0 -0.026 169.5758 664.7922)" overflow="visible"/>
	
		<use xlink:href="#Thumbs_Up_Silhouette_1_"  width="1527.992" height="1600" x="-763.996" y="-800" transform="matrix(0.026 0 0 -0.026 1438.4429 791.0739)" overflow="visible"/>
	
		<use xlink:href="#Thumbs_Up_Silhouette_1_"  width="1527.992" height="1600" x="-763.996" y="-800" transform="matrix(0.026 0 0 -0.026 827.366 1538.6407)" overflow="visible"/>
	
		<use xlink:href="#Thumbs_Up_Silhouette_1_"  width="1527.992" height="1600" x="-763.996" y="-800" transform="matrix(0.026 0 0 -0.026 841.4724 1289.0249)" overflow="visible"/>
	
		<use xlink:href="#Thumbs_Up_Silhouette_1_"  width="1527.992" height="1600" x="-763.996" y="-800" transform="matrix(0.026 0 0 -0.026 559.1418 1505.1135)" overflow="visible"/>
	
		<use xlink:href="#Thumbs_Up_Silhouette_1_"  width="1527.992" height="1600" x="-763.996" y="-800" transform="matrix(0.026 0 0 -0.026 760.0123 791.5297)" overflow="visible"/>
	
		<use xlink:href="#Thumbs_Up_Silhouette_1_"  width="1527.992" height="1600" x="-763.996" y="-800" transform="matrix(0.026 0 0 -0.026 706.9728 514.6302)" overflow="visible"/>
	
		<use xlink:href="#Thumbs_Up_Silhouette_1_"  width="1527.992" height="1600" x="-763.996" y="-800" transform="matrix(0.026 0 0 -0.026 1134.0221 1004.2055)" overflow="visible"/>
	
		<use xlink:href="#Thumbs_Up_Silhouette_1_"  width="1527.992" height="1600" x="-763.996" y="-800" transform="matrix(0.026 0 0 -0.026 456.7735 1330.5507)" overflow="visible"/>
	
		<use xlink:href="#Thumbs_Up_Silhouette_1_"  width="1527.992" height="1600" x="-763.996" y="-800" transform="matrix(0.026 0 0 -0.026 434.0928 967.9659)" overflow="visible"/>
	
		<use xlink:href="#Thumbs_Up_Silhouette_1_"  width="1527.992" height="1600" x="-763.996" y="-800" transform="matrix(0.026 0 0 -0.026 850.6468 848.1174)" overflow="visible"/>
	
		<use xlink:href="#Thumbs_Up_Silhouette_1_"  width="1527.992" height="1600" x="-763.996" y="-800" transform="matrix(0.026 0 0 -0.026 715.0428 1051.6483)" overflow="visible"/>
	
		<use xlink:href="#Thumbs_Up_Silhouette_1_"  width="1527.992" height="1600" x="-763.996" y="-800" transform="matrix(0.026 0 0 -0.026 1007.8666 1243.7019)" overflow="visible"/>
	
		<use xlink:href="#Thumbs_Up_Silhouette_1_"  width="1527.992" height="1600" x="-763.996" y="-800" transform="matrix(0.026 0 0 -0.026 418.2234 1376.9607)" overflow="visible"/>
	
		<use xlink:href="#Thumbs_Up_Silhouette_1_"  width="1527.992" height="1600" x="-763.996" y="-800" transform="matrix(0.026 0 0 -0.026 782.5974 1300.9979)" overflow="visible"/>
	
		<use xlink:href="#Thumbs_Up_Silhouette_1_"  width="1527.992" height="1600" x="-763.996" y="-800" transform="matrix(0.026 0 0 -0.026 1108.0955 952.1326)" overflow="visible"/>
	
		<use xlink:href="#Thumbs_Up_Silhouette_1_"  width="1527.992" height="1600" x="-763.996" y="-800" transform="matrix(0.026 0 0 -0.026 512.0399 1158.2065)" overflow="visible"/>
	
		<use xlink:href="#Thumbs_Up_Silhouette_1_"  width="1527.992" height="1600" x="-763.996" y="-800" transform="matrix(0.026 0 0 -0.026 617.3552 1256.3151)" overflow="visible"/>
	
		<use xlink:href="#Thumbs_Up_Silhouette_1_"  width="1527.992" height="1600" x="-763.996" y="-800" transform="matrix(0.026 0 0 -0.026 1104.5006 1562.6481)" overflow="visible"/>
	
		<use xlink:href="#Thumbs_Up_Silhouette_1_"  width="1527.992" height="1600" x="-763.996" y="-800" transform="matrix(0.026 0 0 -0.026 894.0734 679.9316)" overflow="visible"/>
	
		<use xlink:href="#Thumbs_Up_Silhouette_1_"  width="1527.992" height="1600" x="-763.996" y="-800" transform="matrix(0.026 0 0 -0.026 777.9621 245.9595)" overflow="visible"/>
	
		<use xlink:href="#Thumbs_Up_Silhouette_1_"  width="1527.992" height="1600" x="-763.996" y="-800" transform="matrix(0.026 0 0 -0.026 639.7656 1379.7733)" overflow="visible"/>
	
		<use xlink:href="#Thumbs_Up_Silhouette_1_"  width="1527.992" height="1600" x="-763.996" y="-800" transform="matrix(0.026 0 0 -0.026 187.0335 720.7849)" overflow="visible"/>
	
		<use xlink:href="#Thumbs_Up_Silhouette_1_"  width="1527.992" height="1600" x="-763.996" y="-800" transform="matrix(0.026 0 0 -0.026 906.3882 494.1105)" overflow="visible"/>
	
		<use xlink:href="#Thumbs_Up_Silhouette_1_"  width="1527.992" height="1600" x="-763.996" y="-800" transform="matrix(0.026 0 0 -0.026 1239.5529 1241.3824)" overflow="visible"/>
	
		<use xlink:href="#Thumbs_Up_Silhouette_1_"  width="1527.992" height="1600" x="-763.996" y="-800" transform="matrix(0.026 0 0 -0.026 220.4132 764.7448)" overflow="visible"/>
	
		<use xlink:href="#Thumbs_Up_Silhouette_1_"  width="1527.992" height="1600" x="-763.996" y="-800" transform="matrix(0.026 0 0 -0.026 849.5424 593.3733)" overflow="visible"/>
	
		<use xlink:href="#Thumbs_Up_Silhouette_1_"  width="1527.992" height="1600" x="-763.996" y="-800" transform="matrix(0.026 0 0 -0.026 81.7444 631.5881)" overflow="visible"/>
	
		<use xlink:href="#Thumbs_Up_Silhouette_1_"  width="1527.992" height="1600" x="-763.996" y="-800" transform="matrix(0.026 0 0 -0.026 861.179 286.7019)" overflow="visible"/>
	
		<use xlink:href="#Thumbs_Up_Silhouette_1_"  width="1527.992" height="1600" x="-763.996" y="-800" transform="matrix(0.026 0 0 -0.026 334.8887 1252.9072)" overflow="visible"/>
	
		<use xlink:href="#Thumbs_Up_Silhouette_1_"  width="1527.992" height="1600" x="-763.996" y="-800" transform="matrix(0.026 0 0 -0.026 760.1866 485.9254)" overflow="visible"/>
	
		<use xlink:href="#Thumbs_Up_Silhouette_1_"  width="1527.992" height="1600" x="-763.996" y="-800" transform="matrix(0.026 0 0 -0.026 685.4689 1159.4259)" overflow="visible"/>
	
		<use xlink:href="#Thumbs_Up_Silhouette_1_"  width="1527.992" height="1600" x="-763.996" y="-800" transform="matrix(0.026 0 0 -0.026 566.5507 1238.7817)" overflow="visible"/>
	
		<use xlink:href="#Thumbs_Up_Silhouette_1_"  width="1527.992" height="1600" x="-763.996" y="-800" transform="matrix(0.026 0 0 -0.026 209.8011 862.696)" overflow="visible"/>
	
		<use xlink:href="#Thumbs_Up_Silhouette_1_"  width="1527.992" height="1600" x="-763.996" y="-800" transform="matrix(0.026 0 0 -0.026 542.5237 1375.5649)" overflow="visible"/>
	
		<use xlink:href="#Thumbs_Up_Silhouette_1_"  width="1527.992" height="1600" x="-763.996" y="-800" transform="matrix(0.026 0 0 -0.026 746.1963 292.9262)" overflow="visible"/>
	
		<use xlink:href="#Thumbs_Up_Silhouette_1_"  width="1527.992" height="1600" x="-763.996" y="-800" transform="matrix(0.026 0 0 -0.026 672.5947 1099.1906)" overflow="visible"/>
	
		<use xlink:href="#Thumbs_Up_Silhouette_1_"  width="1527.992" height="1600" x="-763.996" y="-800" transform="matrix(0.026 0 0 -0.026 715.0212 946.8491)" overflow="visible"/>
	
		<use xlink:href="#Thumbs_Up_Silhouette_1_"  width="1527.992" height="1600" x="-763.996" y="-800" transform="matrix(0.026 0 0 -0.026 890.7914 816.5012)" overflow="visible"/>
	
		<use xlink:href="#Thumbs_Up_Silhouette_1_"  width="1527.992" height="1600" x="-763.996" y="-800" transform="matrix(0.026 0 0 -0.026 988.4706 561.0018)" overflow="visible"/>
	
		<use xlink:href="#Thumbs_Up_Silhouette_1_"  width="1527.992" height="1600" x="-763.996" y="-800" transform="matrix(0.026 0 0 -0.026 768.7151 1055.8832)" overflow="visible"/>
	
		<use xlink:href="#Thumbs_Up_Silhouette_1_"  width="1527.992" height="1600" x="-763.996" y="-800" transform="matrix(0.026 0 0 -0.026 979.6197 827.8113)" overflow="visible"/>
	
		<use xlink:href="#Thumbs_Up_Silhouette_1_"  width="1527.992" height="1600" x="-763.996" y="-800" transform="matrix(0.026 0 0 -0.026 791.4674 632.2748)" overflow="visible"/>
	
		<use xlink:href="#Thumbs_Up_Silhouette_1_"  width="1527.992" height="1600" x="-763.996" y="-800" transform="matrix(0.026 0 0 -0.026 822.0334 794.8038)" overflow="visible"/>
	
		<use xlink:href="#Thumbs_Up_Silhouette_1_"  width="1527.992" height="1600" x="-763.996" y="-800" transform="matrix(0.026 0 0 -0.026 1073.1543 996.7834)" overflow="visible"/>
	
		<use xlink:href="#Thumbs_Up_Silhouette_1_"  width="1527.992" height="1600" x="-763.996" y="-800" transform="matrix(0.026 0 0 -0.026 1145.7378 1325.0896)" overflow="visible"/>
	
		<use xlink:href="#Thumbs_Up_Silhouette_1_"  width="1527.992" height="1600" x="-763.996" y="-800" transform="matrix(0.026 0 0 -0.026 1018.7516 1339.2988)" overflow="visible"/>
	
		<use xlink:href="#Thumbs_Up_Silhouette_1_"  width="1527.992" height="1600" x="-763.996" y="-800" transform="matrix(0.026 0 0 -0.026 114.0824 662.1388)" overflow="visible"/>
	
		<use xlink:href="#Thumbs_Up_Silhouette_1_"  width="1527.992" height="1600" x="-763.996" y="-800" transform="matrix(0.026 0 0 -0.026 952.8033 526.9785)" overflow="visible"/>
	
		<use xlink:href="#Thumbs_Up_Silhouette_1_"  width="1527.992" height="1600" x="-763.996" y="-800" transform="matrix(0.026 0 0 -0.026 1097.0875 1163.2897)" overflow="visible"/>
	
		<use xlink:href="#Thumbs_Up_Silhouette_1_"  width="1527.992" height="1600" x="-763.996" y="-800" transform="matrix(0.026 0 0 -0.026 1051.3204 1276.6785)" overflow="visible"/>
	
		<use xlink:href="#Thumbs_Up_Silhouette_1_"  width="1527.992" height="1600" x="-763.996" y="-800" transform="matrix(0.026 0 0 -0.026 244.3191 1342.385)" overflow="visible"/>
	
		<use xlink:href="#Thumbs_Up_Silhouette_1_"  width="1527.992" height="1600" x="-763.996" y="-800" transform="matrix(0.026 0 0 -0.026 739.3635 1344.2026)" overflow="visible"/>
	
		<use xlink:href="#Thumbs_Up_Silhouette_1_"  width="1527.992" height="1600" x="-763.996" y="-800" transform="matrix(0.026 0 0 -0.026 681.6843 1332.4329)" overflow="visible"/>
	
		<use xlink:href="#Thumbs_Up_Silhouette_1_"  width="1527.992" height="1600" x="-763.996" y="-800" transform="matrix(0.026 0 0 -0.026 367.1206 1367.0082)" overflow="visible"/>
	
		<use xlink:href="#Thumbs_Up_Silhouette_1_"  width="1527.992" height="1600" x="-763.996" y="-800" transform="matrix(0.026 0 0 -0.026 1081.028 912.5255)" overflow="visible"/>
	
		<use xlink:href="#Thumbs_Up_Silhouette_1_"  width="1527.992" height="1600" x="-763.996" y="-800" transform="matrix(0.026 0 0 -0.026 395.0902 787.2059)" overflow="visible"/>
	
		<use xlink:href="#Thumbs_Up_Silhouette_1_"  width="1527.992" height="1600" x="-763.996" y="-800" transform="matrix(0.026 0 0 -0.026 563.2034 1003.3684)" overflow="visible"/>
	
		<use xlink:href="#Thumbs_Up_Silhouette_1_"  width="1527.992" height="1600" x="-763.996" y="-800" transform="matrix(0.026 0 0 -0.026 821.6136 1389.8354)" overflow="visible"/>
	
		<use xlink:href="#Thumbs_Up_Silhouette_1_"  width="1527.992" height="1600" x="-763.996" y="-800" transform="matrix(0.026 0 0 -0.026 820.63 1438.2451)" overflow="visible"/>
	
		<use xlink:href="#Thumbs_Up_Silhouette_1_"  width="1527.992" height="1600" x="-763.996" y="-800" transform="matrix(0.026 0 0 -0.026 822.5767 1486.6547)" overflow="visible"/>
	
		<use xlink:href="#Thumbs_Up_Silhouette_1_"  width="1527.992" height="1600" x="-763.996" y="-800" transform="matrix(0.026 0 0 -0.026 830.788 1590.6268)" overflow="visible"/>
	
		<use xlink:href="#Thumbs_Up_Silhouette_1_"  width="1527.992" height="1600" x="-763.996" y="-800" transform="matrix(0.026 0 0 -0.026 679.3722 835.0841)" overflow="visible"/>
	
		<use xlink:href="#Thumbs_Up_Silhouette_1_"  width="1527.992" height="1600" x="-763.996" y="-800" transform="matrix(0.026 0 0 -0.026 337.4996 968.7157)" overflow="visible"/>
	
		<use xlink:href="#Thumbs_Up_Silhouette_1_"  width="1527.992" height="1600" x="-763.996" y="-800" transform="matrix(0.026 0 0 -0.026 239.1681 917.9269)" overflow="visible"/>
	
		<use xlink:href="#Thumbs_Up_Silhouette_1_"  width="1527.992" height="1600" x="-763.996" y="-800" transform="matrix(0.026 0 0 -0.026 797.9403 743.7846)" overflow="visible"/>
	
		<use xlink:href="#Thumbs_Up_Silhouette_1_"  width="1527.992" height="1600" x="-763.996" y="-800" transform="matrix(0.026 0 0 -0.026 1141.6648 1065.2662)" overflow="visible"/>
	
		<use xlink:href="#Thumbs_Up_Silhouette_1_"  width="1527.992" height="1600" x="-763.996" y="-800" transform="matrix(0.026 0 0 -0.026 964.3688 705.3582)" overflow="visible"/>
	
		<use xlink:href="#Thumbs_Up_Silhouette_1_"  width="1527.992" height="1600" x="-763.996" y="-800" transform="matrix(0.026 0 0 -0.026 451.1561 790.3124)" overflow="visible"/>
	
		<use xlink:href="#Thumbs_Up_Silhouette_1_"  width="1527.992" height="1600" x="-763.996" y="-800" transform="matrix(0.026 0 0 -0.026 908.1403 560.8774)" overflow="visible"/>
	
		<use xlink:href="#Thumbs_Up_Silhouette_1_"  width="1527.992" height="1600" x="-763.996" y="-800" transform="matrix(0.026 0 0 -0.026 1109.6257 1377.9913)" overflow="visible"/>
	
		<use xlink:href="#Thumbs_Up_Silhouette_1_"  width="1527.992" height="1600" x="-763.996" y="-800" transform="matrix(0.026 0 0 -0.026 1328.3032 1368.21)" overflow="visible"/>
	
		<use xlink:href="#Thumbs_Up_Silhouette_1_"  width="1527.992" height="1600" x="-763.996" y="-800" transform="matrix(0.026 0 0 -0.026 826.9958 342.3797)" overflow="visible"/>
	
		<use xlink:href="#Thumbs_Up_Silhouette_1_"  width="1527.992" height="1600" x="-763.996" y="-800" transform="matrix(0.026 0 0 -0.026 392.4752 1067.629)" overflow="visible"/>
	
		<use xlink:href="#Thumbs_Up_Silhouette_1_"  width="1527.992" height="1600" x="-763.996" y="-800" transform="matrix(0.026 0 0 -0.026 980.7544 753.9366)" overflow="visible"/>
	
		<use xlink:href="#Thumbs_Up_Silhouette_1_"  width="1527.992" height="1600" x="-763.996" y="-800" transform="matrix(0.026 0 0 -0.026 783.1779 1208.5172)" overflow="visible"/>
	
		<use xlink:href="#Thumbs_Up_Silhouette_1_"  width="1527.992" height="1600" x="-763.996" y="-800" transform="matrix(0.026 0 0 -0.026 795.0717 846.4348)" overflow="visible"/>
	
		<use xlink:href="#Thumbs_Up_Silhouette_1_"  width="1527.992" height="1600" x="-763.996" y="-800" transform="matrix(0.026 0 0 -0.026 893.4342 1082.4167)" overflow="visible"/>
	
		<use xlink:href="#Thumbs_Up_Silhouette_1_"  width="1527.992" height="1600" x="-763.996" y="-800" transform="matrix(0.026 0 0 -0.026 465.8682 853.1321)" overflow="visible"/>
	
		<use xlink:href="#Thumbs_Up_Silhouette_1_"  width="1527.992" height="1600" x="-763.996" y="-800" transform="matrix(0.026 0 0 -0.026 823.1879 139.172)" overflow="visible"/>
	
		<use xlink:href="#Thumbs_Up_Silhouette_1_"  width="1527.992" height="1600" x="-763.996" y="-800" transform="matrix(0.026 0 0 -0.026 124.9719 716.3337)" overflow="visible"/>
	
		<use xlink:href="#Thumbs_Up_Silhouette_1_"  width="1527.992" height="1600" x="-763.996" y="-800" transform="matrix(0.026 0 0 -0.026 1216.1324 908.0051)" overflow="visible"/>
	
		<use xlink:href="#Thumbs_Up_Silhouette_1_"  width="1527.992" height="1600" x="-763.996" y="-800" transform="matrix(0.026 0 0 -0.026 322.9134 862.2231)" overflow="visible"/>
	
		<use xlink:href="#Thumbs_Up_Silhouette_1_"  width="1527.992" height="1600" x="-763.996" y="-800" transform="matrix(0.026 0 0 -0.026 568.912 1300.1971)" overflow="visible"/>
	
		<use xlink:href="#Thumbs_Up_Silhouette_1_"  width="1527.992" height="1600" x="-763.996" y="-800" transform="matrix(0.026 0 0 -0.026 762.838 341.9095)" overflow="visible"/>
	
		<use xlink:href="#Thumbs_Up_Silhouette_1_"  width="1527.992" height="1600" x="-763.996" y="-800" transform="matrix(0.026 0 0 -0.026 314.9901 712.2965)" overflow="visible"/>
	
		<use xlink:href="#Thumbs_Up_Silhouette_1_"  width="1527.992" height="1600" x="-763.996" y="-800" transform="matrix(0.026 0 0 -0.026 850.1913 1212.9164)" overflow="visible"/>
	
		<use xlink:href="#Thumbs_Up_Silhouette_1_"  width="1527.992" height="1600" x="-763.996" y="-800" transform="matrix(0.026 0 0 -0.026 498.7505 1046.1113)" overflow="visible"/>
	
		<use xlink:href="#Thumbs_Up_Silhouette_1_"  width="1527.992" height="1600" x="-763.996" y="-800" transform="matrix(0.026 0 0 -0.026 1519.4154 1316.3086)" overflow="visible"/>
	
		<use xlink:href="#Thumbs_Up_Silhouette_1_"  width="1527.992" height="1600" x="-763.996" y="-800" transform="matrix(0.026 0 0 -0.026 854.5883 532.4781)" overflow="visible"/>
	
		<use xlink:href="#Thumbs_Up_Silhouette_1_"  width="1527.992" height="1600" x="-763.996" y="-800" transform="matrix(0.026 0 0 -0.026 657.0684 1043.7339)" overflow="visible"/>
	
		<use xlink:href="#Thumbs_Up_Silhouette_1_"  width="1527.992" height="1600" x="-763.996" y="-800" transform="matrix(0.026 0 0 -0.026 976.5447 1003.8852)" overflow="visible"/>
	
		<use xlink:href="#Thumbs_Up_Silhouette_1_"  width="1527.992" height="1600" x="-763.996" y="-800" transform="matrix(0.026 0 0 -0.026 1038.2145 1532.8977)" overflow="visible"/>
	
		<use xlink:href="#Thumbs_Up_Silhouette_1_"  width="1527.992" height="1600" x="-763.996" y="-800" transform="matrix(0.026 0 0 -0.026 440.4628 1079.7522)" overflow="visible"/>
	
		<use xlink:href="#Thumbs_Up_Silhouette_1_"  width="1527.992" height="1600" x="-763.996" y="-800" transform="matrix(0.026 0 0 -0.026 1021.7834 1016.3519)" overflow="visible"/>
	
		<use xlink:href="#Thumbs_Up_Silhouette_1_"  width="1527.992" height="1600" x="-763.996" y="-800" transform="matrix(0.026 0 0 -0.026 551.0653 1065.4812)" overflow="visible"/>
	
		<use xlink:href="#Thumbs_Up_Silhouette_1_"  width="1527.992" height="1600" x="-763.996" y="-800" transform="matrix(0.026 0 0 -0.026 399.1139 1309.696)" overflow="visible"/>
	
		<use xlink:href="#Thumbs_Up_Silhouette_1_"  width="1527.992" height="1600" x="-763.996" y="-800" transform="matrix(0.026 0 0 -0.026 1562.7268 642.2251)" overflow="visible"/>
	
		<use xlink:href="#Thumbs_Up_Silhouette_1_"  width="1527.992" height="1600" x="-763.996" y="-800" transform="matrix(0.026 0 0 -0.026 1211.9125 791.0033)" overflow="visible"/>
	
		<use xlink:href="#Thumbs_Up_Silhouette_1_"  width="1527.992" height="1600" x="-763.996" y="-800" transform="matrix(0.026 0 0 -0.026 1484.6897 714.4828)" overflow="visible"/>
	
		<use xlink:href="#Thumbs_Up_Silhouette_1_"  width="1527.992" height="1600" x="-763.996" y="-800" transform="matrix(0.026 0 0 -0.026 1082.1736 1049.486)" overflow="visible"/>
	
		<use xlink:href="#Thumbs_Up_Silhouette_1_"  width="1527.992" height="1600" x="-763.996" y="-800" transform="matrix(0.026 0 0 -0.026 897.83 934.0688)" overflow="visible"/>
	
		<use xlink:href="#Thumbs_Up_Silhouette_1_"  width="1527.992" height="1600" x="-763.996" y="-800" transform="matrix(0.026 0 0 -0.026 1414.1886 836.6168)" overflow="visible"/>
	
		<use xlink:href="#Thumbs_Up_Silhouette_1_"  width="1527.992" height="1600" x="-763.996" y="-800" transform="matrix(0.026 0 0 -0.026 724.7913 1441.7369)" overflow="visible"/>
	
		<use xlink:href="#Thumbs_Up_Silhouette_1_"  width="1527.992" height="1600" x="-763.996" y="-800" transform="matrix(0.026 0 0 -0.026 782.7129 1113.3096)" overflow="visible"/>
	
		<use xlink:href="#Thumbs_Up_Silhouette_1_"  width="1527.992" height="1600" x="-763.996" y="-800" transform="matrix(0.026 0 0 -0.026 968.313 476.6969)" overflow="visible"/>
	
		<use xlink:href="#Thumbs_Up_Silhouette_1_"  width="1527.992" height="1600" x="-763.996" y="-800" transform="matrix(0.026 0 0 -0.026 272.4214 854.2197)" overflow="visible"/>
	
		<use xlink:href="#Thumbs_Up_Silhouette_1_"  width="1527.992" height="1600" x="-763.996" y="-800" transform="matrix(0.026 0 0 -0.026 1363.8755 1302.925)" overflow="visible"/>
	
		<use xlink:href="#Thumbs_Up_Silhouette_1_"  width="1527.992" height="1600" x="-763.996" y="-800" transform="matrix(0.026 0 0 -0.026 1413.2433 925.4189)" overflow="visible"/>
	
		<use xlink:href="#Thumbs_Up_Silhouette_1_"  width="1527.992" height="1600" x="-763.996" y="-800" transform="matrix(0.026 0 0 -0.026 1191.2913 1041.8521)" overflow="visible"/>
	
		<use xlink:href="#Thumbs_Up_Silhouette_1_"  width="1527.992" height="1600" x="-763.996" y="-800" transform="matrix(0.026 0 0 -0.026 1283.0468 813.1123)" overflow="visible"/>
	
		<use xlink:href="#Thumbs_Up_Silhouette_1_"  width="1527.992" height="1600" x="-763.996" y="-800" transform="matrix(0.026 0 0 -0.026 839.1635 1111.3311)" overflow="visible"/>
	
		<use xlink:href="#Thumbs_Up_Silhouette_1_"  width="1527.992" height="1600" x="-763.996" y="-800" transform="matrix(0.026 0 0 -0.026 1184.6445 975.3812)" overflow="visible"/>
	
		<use xlink:href="#Thumbs_Up_Silhouette_1_"  width="1527.992" height="1600" x="-763.996" y="-800" transform="matrix(0.026 0 0 -0.026 370.6245 838.8888)" overflow="visible"/>
	
		<use xlink:href="#Thumbs_Up_Silhouette_1_"  width="1527.992" height="1600" x="-763.996" y="-800" transform="matrix(0.026 0 0 -0.026 614.6912 1487.8962)" overflow="visible"/>
	
		<use xlink:href="#Thumbs_Up_Silhouette_1_"  width="1527.992" height="1600" x="-763.996" y="-800" transform="matrix(0.026 0 0 -0.026 1016.5701 1411.8885)" overflow="visible"/>
	
		<use xlink:href="#Thumbs_Up_Silhouette_1_"  width="1527.992" height="1600" x="-763.996" y="-800" transform="matrix(0.026 0 0 -0.026 1282.5414 918.5364)" overflow="visible"/>
	
		<use xlink:href="#Thumbs_Up_Silhouette_1_"  width="1527.992" height="1600" x="-763.996" y="-800" transform="matrix(0.026 0 0 -0.026 540.9939 1562.543)" overflow="visible"/>
	
		<use xlink:href="#Thumbs_Up_Silhouette_1_"  width="1527.992" height="1600" x="-763.996" y="-800" transform="matrix(0.026 0 0 -0.026 1443.7375 874.5961)" overflow="visible"/>
	
		<use xlink:href="#Thumbs_Up_Silhouette_1_"  width="1527.992" height="1600" x="-763.996" y="-800" transform="matrix(0.026 0 0 -0.026 780.3588 393.5587)" overflow="visible"/>
	
		<use xlink:href="#Thumbs_Up_Silhouette_1_"  width="1527.992" height="1600" x="-763.996" y="-800" transform="matrix(0.026 0 0 -0.026 1119.2324 884.1866)" overflow="visible"/>
	
		<use xlink:href="#Thumbs_Up_Silhouette_1_"  width="1527.992" height="1600" x="-763.996" y="-800" transform="matrix(0.026 0 0 -0.026 880.3889 225.6594)" overflow="visible"/>
	
		<use xlink:href="#Thumbs_Up_Silhouette_1_"  width="1527.992" height="1600" x="-763.996" y="-800" transform="matrix(0.026 0 0 -0.026 722.9524 1290.0334)" overflow="visible"/>
	
		<use xlink:href="#Thumbs_Up_Silhouette_1_"  width="1527.992" height="1600" x="-763.996" y="-800" transform="matrix(0.026 0 0 -0.026 254.1095 803.9153)" overflow="visible"/>
	
		<use xlink:href="#Thumbs_Up_Silhouette_1_"  width="1527.992" height="1600" x="-763.996" y="-800" transform="matrix(0.026 0 0 -0.026 809.2524 1164.1086)" overflow="visible"/>
	
		<use xlink:href="#Thumbs_Up_Silhouette_1_"  width="1527.992" height="1600" x="-763.996" y="-800" transform="matrix(0.026 0 0 -0.026 738.2124 737.5601)" overflow="visible"/>
	
		<use xlink:href="#Thumbs_Up_Silhouette_1_"  width="1527.992" height="1600" x="-763.996" y="-800" transform="matrix(0.026 0 0 -0.026 501.7244 1101.1914)" overflow="visible"/>
	
		<use xlink:href="#Thumbs_Up_Silhouette_1_"  width="1527.992" height="1600" x="-763.996" y="-800" transform="matrix(0.026 0 0 -0.026 676.6182 1268.6827)" overflow="visible"/>
	
		<use xlink:href="#Thumbs_Up_Silhouette_1_"  width="1527.992" height="1600" x="-763.996" y="-800" transform="matrix(0.026 0 0 -0.026 607.0688 944.4401)" overflow="visible"/>
	
		<use xlink:href="#Thumbs_Up_Silhouette_1_"  width="1527.992" height="1600" x="-763.996" y="-800" transform="matrix(0.026 0 0 -0.026 1241.1559 1014.0576)" overflow="visible"/>
	
		<use xlink:href="#Thumbs_Up_Silhouette_1_"  width="1527.992" height="1600" x="-763.996" y="-800" transform="matrix(0.026 0 0 -0.026 1045.3672 1156.64)" overflow="visible"/>
	
		<use xlink:href="#Thumbs_Up_Silhouette_1_"  width="1527.992" height="1600" x="-763.996" y="-800" transform="matrix(0.026 0 0 -0.026 793.5482 573.936)" overflow="visible"/>
	
		<use xlink:href="#Thumbs_Up_Silhouette_1_"  width="1527.992" height="1600" x="-763.996" y="-800" transform="matrix(0.026 0 0 -0.026 958.009 1097.5585)" overflow="visible"/>
	
		<use xlink:href="#Thumbs_Up_Silhouette_1_"  width="1527.992" height="1600" x="-763.996" y="-800" transform="matrix(0.026 0 0 -0.026 1359.7177 816.4579)" overflow="visible"/>
	
		<use xlink:href="#Thumbs_Up_Silhouette_1_"  width="1527.992" height="1600" x="-763.996" y="-800" transform="matrix(0.026 0 0 -0.026 310.4361 1358.8397)" overflow="visible"/>
	
		<use xlink:href="#Thumbs_Up_Silhouette_1_"  width="1527.992" height="1600" x="-763.996" y="-800" transform="matrix(0.026 0 0 -0.026 1157.4097 928.4824)" overflow="visible"/>
	
		<use xlink:href="#Thumbs_Up_Silhouette_1_"  width="1527.992" height="1600" x="-763.996" y="-800" transform="matrix(0.026 0 0 -0.026 1067.3113 1352.1716)" overflow="visible"/>
	
		<use xlink:href="#Thumbs_Up_Silhouette_1_"  width="1527.992" height="1600" x="-763.996" y="-800" transform="matrix(0.026 0 0 -0.026 459.1373 1234.8632)" overflow="visible"/>
	
		<use xlink:href="#Thumbs_Up_Silhouette_1_"  width="1527.992" height="1600" x="-763.996" y="-800" transform="matrix(0.026 0 0 -0.026 564.5436 897.1967)" overflow="visible"/>
	
		<use xlink:href="#Thumbs_Up_Silhouette_1_"  width="1527.992" height="1600" x="-763.996" y="-800" transform="matrix(0.026 0 0 -0.026 1325.4767 1027.7073)" overflow="visible"/>
	
		<use xlink:href="#Thumbs_Up_Silhouette_1_"  width="1527.992" height="1600" x="-763.996" y="-800" transform="matrix(0.026 0 0 -0.026 1057.5736 1211.1354)" overflow="visible"/>
	
		<use xlink:href="#Thumbs_Up_Silhouette_1_"  width="1527.992" height="1600" x="-763.996" y="-800" transform="matrix(0.026 0 0 -0.026 788.3905 690.2989)" overflow="visible"/>
	
		<use xlink:href="#Thumbs_Up_Silhouette_1_"  width="1527.992" height="1600" x="-763.996" y="-800" transform="matrix(0.026 0 0 -0.026 627.2764 989.6915)" overflow="visible"/>
	
		<use xlink:href="#Thumbs_Up_Silhouette_1_"  width="1527.992" height="1600" x="-763.996" y="-800" transform="matrix(0.026 0 0 -0.026 685.2301 1481.4442)" overflow="visible"/>
	
		<use xlink:href="#Thumbs_Up_Silhouette_1_"  width="1527.992" height="1600" x="-763.996" y="-800" transform="matrix(0.026 0 0 -0.026 827.6523 40.3388)" overflow="visible"/>
	
		<use xlink:href="#Thumbs_Up_Silhouette_1_"  width="1527.992" height="1600" x="-763.996" y="-800" transform="matrix(0.026 0 0 -0.026 145.0722 1316.6621)" overflow="visible"/>
	
		<use xlink:href="#Thumbs_Up_Silhouette_1_"  width="1527.992" height="1600" x="-763.996" y="-800" transform="matrix(0.026 0 0 -0.026 735.0489 624.6647)" overflow="visible"/>
	
		<use xlink:href="#Thumbs_Up_Silhouette_1_"  width="1527.992" height="1600" x="-763.996" y="-800" transform="matrix(0.026 0 0 -0.026 807.8445 442.0059)" overflow="visible"/>
	
		<use xlink:href="#Thumbs_Up_Silhouette_1_"  width="1527.992" height="1600" x="-763.996" y="-800" transform="matrix(0.026 0 0 -0.026 1099.1752 1295.4846)" overflow="visible"/>
	
		<use xlink:href="#Thumbs_Up_Silhouette_1_"  width="1527.992" height="1600" x="-763.996" y="-800" transform="matrix(0.026 0 0 -0.026 675.9124 670.0977)" overflow="visible"/>
	
		<use xlink:href="#Thumbs_Up_Silhouette_1_"  width="1527.992" height="1600" x="-763.996" y="-800" transform="matrix(0.026 0 0 -0.026 1341.0137 928.3667)" overflow="visible"/>
	
		<use xlink:href="#Thumbs_Up_Silhouette_1_"  width="1527.992" height="1600" x="-763.996" y="-800" transform="matrix(0.026 0 0 -0.026 444.6715 1281.0537)" overflow="visible"/>
	
		<use xlink:href="#Thumbs_Up_Silhouette_1_"  width="1527.992" height="1600" x="-763.996" y="-800" transform="matrix(0.026 0 0 -0.026 228.053 681.9547)" overflow="visible"/>
	
		<use xlink:href="#Thumbs_Up_Silhouette_1_"  width="1527.992" height="1600" x="-763.996" y="-800" transform="matrix(0.026 0 0 -0.026 896.0345 1260.5118)" overflow="visible"/>
	
		<use xlink:href="#Thumbs_Up_Silhouette_1_"  width="1527.992" height="1600" x="-763.996" y="-800" transform="matrix(0.026 0 0 -0.026 842.9769 392.085)" overflow="visible"/>
	
		<use xlink:href="#Thumbs_Up_Silhouette_1_"  width="1527.992" height="1600" x="-763.996" y="-800" transform="matrix(0.026 0 0 -0.026 934.7666 784.5219)" overflow="visible"/>
	
		<use xlink:href="#Thumbs_Up_Silhouette_1_"  width="1527.992" height="1600" x="-763.996" y="-800" transform="matrix(0.026 0 0 -0.026 1054.8188 1462.1533)" overflow="visible"/>
	
		<use xlink:href="#Thumbs_Up_Silhouette_1_"  width="1527.992" height="1600" x="-763.996" y="-800" transform="matrix(0.026 0 0 -0.026 831.3673 237.0302)" overflow="visible"/>
	
		<use xlink:href="#Thumbs_Up_Silhouette_1_"  width="1527.992" height="1600" x="-763.996" y="-800" transform="matrix(0.026 0 0 -0.026 288.5126 1311.1401)" overflow="visible"/>
	
		<use xlink:href="#Thumbs_Up_Silhouette_1_"  width="1527.992" height="1600" x="-763.996" y="-800" transform="matrix(0.026 0 0 -0.026 479.4951 1382.4241)" overflow="visible"/>
	
		<use xlink:href="#Thumbs_Up_Silhouette_1_"  width="1527.992" height="1600" x="-763.996" y="-800" transform="matrix(0.026 0 0 -0.026 829.207 92.7929)" overflow="visible"/>
	
		<use xlink:href="#Thumbs_Up_Silhouette_1_"  width="1527.992" height="1600" x="-763.996" y="-800" transform="matrix(0.026 0 0 -0.026 409.2036 881.7318)" overflow="visible"/>
	
		<use xlink:href="#Thumbs_Up_Silhouette_1_"  width="1527.992" height="1600" x="-763.996" y="-800" transform="matrix(0.026 0 0 -0.026 1198.9841 1287.6951)" overflow="visible"/>
	
		<use xlink:href="#Thumbs_Up_Silhouette_1_"  width="1527.992" height="1600" x="-763.996" y="-800" transform="matrix(0.026 0 0 -0.026 1423.6173 1337.9058)" overflow="visible"/>
	
		<use xlink:href="#Thumbs_Up_Silhouette_1_"  width="1527.992" height="1600" x="-763.996" y="-800" transform="matrix(0.026 0 0 -0.026 298.3419 762.2395)" overflow="visible"/>
	
		<use xlink:href="#Thumbs_Up_Silhouette_1_"  width="1527.992" height="1600" x="-763.996" y="-800" transform="matrix(0.026 0 0 -0.026 966.9144 1377.037)" overflow="visible"/>
	
		<use xlink:href="#Thumbs_Up_Silhouette_1_"  width="1527.992" height="1600" x="-763.996" y="-800" transform="matrix(0.026 0 0 -0.026 844.9658 654.8906)" overflow="visible"/>
	
		<use xlink:href="#Thumbs_Up_Silhouette_1_"  width="1527.992" height="1600" x="-763.996" y="-800" transform="matrix(0.026 0 0 -0.026 1169.8987 1376.5338)" overflow="visible"/>
	
		<use xlink:href="#Thumbs_Up_Silhouette_1_"  width="1527.992" height="1600" x="-763.996" y="-800" transform="matrix(0.026 0 0 -0.026 514.7796 841.4442)" overflow="visible"/>
	
		<use xlink:href="#Thumbs_Up_Silhouette_1_"  width="1527.992" height="1600" x="-763.996" y="-800" transform="matrix(0.026 0 0 -0.026 847.4833 179.3634)" overflow="visible"/>
	
		<use xlink:href="#Thumbs_Up_Silhouette_1_"  width="1527.992" height="1600" x="-763.996" y="-800" transform="matrix(0.026 0 0 -0.026 1219.9758 1334.0847)" overflow="visible"/>
	
		<use xlink:href="#Thumbs_Up_Silhouette_1_"  width="1527.992" height="1600" x="-763.996" y="-800" transform="matrix(0.026 0 0 -0.026 1324.5181 771.5059)" overflow="visible"/>
	
		<use xlink:href="#Thumbs_Up_Silhouette_1_"  width="1527.992" height="1600" x="-763.996" y="-800" transform="matrix(0.026 0 0 -0.026 1108.4364 1230.6467)" overflow="visible"/>
	
		<use xlink:href="#Thumbs_Up_Silhouette_1_"  width="1527.992" height="1600" x="-763.996" y="-800" transform="matrix(0.026 0 0 -0.026 41.2534 595.1245)" overflow="visible"/>
	
		<use xlink:href="#Thumbs_Up_Silhouette_1_"  width="1527.992" height="1600" x="-763.996" y="-800" transform="matrix(0.026 0 0 -0.026 698.5572 785.2175)" overflow="visible"/>
	
		<use xlink:href="#Thumbs_Up_Silhouette_1_"  width="1527.992" height="1600" x="-763.996" y="-800" transform="matrix(0.026 0 0 -0.026 1375.3221 1347.5857)" overflow="visible"/>
	
		<use xlink:href="#Thumbs_Up_Silhouette_1_"  width="1527.992" height="1600" x="-763.996" y="-800" transform="matrix(0.026 0 0 -0.026 870.8046 984.1179)" overflow="visible"/>
	
		<use xlink:href="#Thumbs_Up_Silhouette_1_"  width="1527.992" height="1600" x="-763.996" y="-800" transform="matrix(0.026 0 0 -0.026 730.1271 681.7637)" overflow="visible"/>
	
		<use xlink:href="#Thumbs_Up_Silhouette_1_"  width="1527.992" height="1600" x="-763.996" y="-800" transform="matrix(0.026 0 0 -0.026 678.2885 734.8231)" overflow="visible"/>
	
		<use xlink:href="#Thumbs_Up_Silhouette_1_"  width="1527.992" height="1600" x="-763.996" y="-800" transform="matrix(0.026 0 0 -0.026 345.7659 755.6178)" overflow="visible"/>
	
		<use xlink:href="#Thumbs_Up_Silhouette_1_"  width="1527.992" height="1600" x="-763.996" y="-800" transform="matrix(0.026 0 0 -0.026 386.9795 741.231)" overflow="visible"/>
	
		<use xlink:href="#Thumbs_Up_Silhouette_1_"  width="1527.992" height="1600" x="-763.996" y="-800" transform="matrix(0.026 0 0 -0.026 725.1402 574.4122)" overflow="visible"/>
	
		<use xlink:href="#Thumbs_Up_Silhouette_1_"  width="1527.992" height="1600" x="-763.996" y="-800" transform="matrix(0.026 0 0 -0.026 1182.0663 1230.3528)" overflow="visible"/>
	
		<use xlink:href="#Thumbs_Up_Silhouette_1_"  width="1527.992" height="1600" x="-763.996" y="-800" transform="matrix(0.026 0 0 -0.026 818.0597 499.5306)" overflow="visible"/>
	
		<use xlink:href="#Thumbs_Up_Silhouette_1_"  width="1527.992" height="1600" x="-763.996" y="-800" transform="matrix(0.026 0 0 -0.026 994.2375 657.1611)" overflow="visible"/>
	
		<use xlink:href="#Thumbs_Up_Silhouette_1_"  width="1527.992" height="1600" x="-763.996" y="-800" transform="matrix(0.026 0 0 -0.026 354.0354 903.557)" overflow="visible"/>
	
		<use xlink:href="#Thumbs_Up_Silhouette_1_"  width="1527.992" height="1600" x="-763.996" y="-800" transform="matrix(0.026 0 0 -0.026 726.577 1109.5579)" overflow="visible"/>
	
		<use xlink:href="#Thumbs_Up_Silhouette_1_"  width="1527.992" height="1600" x="-763.996" y="-800" transform="matrix(0.026 0 0 -0.026 1349.3899 1260.0725)" overflow="visible"/>
	
		<use xlink:href="#Thumbs_Up_Silhouette_1_"  width="1527.992" height="1600" x="-763.996" y="-800" transform="matrix(0.026 0 0 -0.026 281.5692 976.6279)" overflow="visible"/>
	
		<use xlink:href="#Thumbs_Up_Silhouette_1_"  width="1527.992" height="1600" x="-763.996" y="-800" transform="matrix(0.026 0 0 -0.026 566.812 1176.7886)" overflow="visible"/>
	
		<use xlink:href="#Thumbs_Up_Silhouette_1_"  width="1527.992" height="1600" x="-763.996" y="-800" transform="matrix(0.026 0 0 -0.026 1439.8392 741.231)" overflow="visible"/>
	
		<use xlink:href="#Thumbs_Up_Silhouette_1_"  width="1527.992" height="1600" x="-763.996" y="-800" transform="matrix(0.026 0 0 -0.026 901.3098 619.7095)" overflow="visible"/>
	
		<use xlink:href="#Thumbs_Up_Silhouette_1_"  width="1527.992" height="1600" x="-763.996" y="-800" transform="matrix(0.026 0 0 -0.026 1133.0574 1113.2031)" overflow="visible"/>
	
		<use xlink:href="#Thumbs_Up_Silhouette_1_"  width="1527.992" height="1600" x="-763.996" y="-800" transform="matrix(0.026 0 0 -0.026 507.8851 993.3188)" overflow="visible"/>
	
		<use xlink:href="#Thumbs_Up_Silhouette_1_"  width="1527.992" height="1600" x="-763.996" y="-800" transform="matrix(0.026 0 0 -0.026 296.442 916.5233)" overflow="visible"/>
	
		<use xlink:href="#Thumbs_Up_Silhouette_1_"  width="1527.992" height="1600" x="-763.996" y="-800" transform="matrix(0.026 0 0 -0.026 1438.5618 679.769)" overflow="visible"/>
	
		<use xlink:href="#Thumbs_Up_Silhouette_1_"  width="1527.992" height="1600" x="-763.996" y="-800" transform="matrix(0.026 0 0 -0.026 750.0254 1000.4237)" overflow="visible"/>
	
		<use xlink:href="#Thumbs_Up_Silhouette_1_"  width="1527.992" height="1600" x="-763.996" y="-800" transform="matrix(0.026 0 0 -0.026 810.1696 1004.7697)" overflow="visible"/>
	
		<use xlink:href="#Thumbs_Up_Silhouette_1_"  width="1527.992" height="1600" x="-763.996" y="-800" transform="matrix(0.026 0 0 -0.026 1198.2736 1120.8734)" overflow="visible"/>
	
		<use xlink:href="#Thumbs_Up_Silhouette_1_"  width="1527.992" height="1600" x="-763.996" y="-800" transform="matrix(0.026 0 0 -0.026 1297.0514 979.1989)" overflow="visible"/>
	
		<use xlink:href="#Thumbs_Up_Silhouette_1_"  width="1527.992" height="1600" x="-763.996" y="-800" transform="matrix(0.026 0 0 -0.026 388.1978 1003.1841)" overflow="visible"/>
	
		<use xlink:href="#Thumbs_Up_Silhouette_1_"  width="1527.992" height="1600" x="-763.996" y="-800" transform="matrix(0.026 0 0 -0.026 422.1558 829.3693)" overflow="visible"/>
	
		<use xlink:href="#Thumbs_Up_Silhouette_1_"  width="1527.992" height="1600" x="-763.996" y="-800" transform="matrix(0.026 0 0 -0.026 1277.62 1361.3971)" overflow="visible"/>
	
		<use xlink:href="#Thumbs_Up_Silhouette_1_"  width="1527.992" height="1600" x="-763.996" y="-800" transform="matrix(0.026 0 0 -0.026 757.3605 896.8375)" overflow="visible"/>
	
		<use xlink:href="#Thumbs_Up_Silhouette_1_"  width="1527.992" height="1600" x="-763.996" y="-800" transform="matrix(0.026 0 0 -0.026 743.5676 445.3071)" overflow="visible"/>
	
		<use xlink:href="#Thumbs_Up_Silhouette_1_"  width="1527.992" height="1600" x="-763.996" y="-800" transform="matrix(0.026 0 0 -0.026 1539.5201 704.1321)" overflow="visible"/>
	
		<use xlink:href="#Thumbs_Up_Silhouette_1_"  width="1527.992" height="1600" x="-763.996" y="-800" transform="matrix(0.026 0 0 -0.026 951.0977 1261.127)" overflow="visible"/>
</g>
</svg>
